<?xml version="1.0" encoding="UTF-8" standalone="no"?>
<svg
   xmlns:dc="http://purl.org/dc/elements/1.1/"
   xmlns:cc="http://creativecommons.org/ns#"
   xmlns:rdf="http://www.w3.org/1999/02/22-rdf-syntax-ns#"
   xmlns:svg="http://www.w3.org/2000/svg"
   xmlns="http://www.w3.org/2000/svg"
   xmlns:sodipodi="http://sodipodi.sourceforge.net/DTD/sodipodi-0.dtd"
   xmlns:inkscape="http://www.inkscape.org/namespaces/inkscape"
   width="15.999999"
   height="16"
   inkscape:version="1.0 (1.0+r73+1)"
   version="1.1"
   sodipodi:docname="numlock-disabled-symbolic.svg"
   id="svg7384">
  <metadata
     id="metadata90">
    <rdf:RDF>
      <cc:Work
         rdf:about="">
        <dc:format>image/svg+xml</dc:format>
        <dc:type
           rdf:resource="http://purl.org/dc/dcmitype/StillImage" />
        <dc:title>Gnome Symbolic Icon Theme</dc:title>
      </cc:Work>
    </rdf:RDF>
  </metadata>
  <sodipodi:namedview
     inkscape:document-rotation="0"
     inkscape:bbox-nodes="false"
     inkscape:pageopacity="1"
     inkscape:snap-grids="true"
     inkscape:cx="-7.72662"
     inkscape:zoom="22.627416"
     inkscape:current-layer="layer11"
     inkscape:snap-to-guides="true"
     inkscape:window-height="1218"
     gridtolerance="10"
     inkscape:window-y="226"
     inkscape:snap-global="true"
     inkscape:window-x="136"
     inkscape:window-maximized="0"
     showgrid="false"
     id="namedview88"
     objecttolerance="10"
     bordercolor="#666666"
     inkscape:snap-nodes="true"
     inkscape:guide-bbox="true"
     inkscape:pageshadow="2"
     inkscape:snap-bbox="true"
     showguides="true"
     inkscape:window-width="1729"
     guidetolerance="10"
     inkscape:bbox-paths="false"
     showborder="false"
     borderopacity="1"
     pagecolor="#666666"
     inkscape:cy="5.5556616">
    <inkscape:grid
       originy="0"
       originx="0"
       visible="true"
       snapvisiblegridlinesonly="true"
       type="xygrid"
       enabled="true"
       empspacing="2"
       id="grid4866"
       spacingy="1"
       spacingx="1" />
  </sodipodi:namedview>
  <title
     id="title9167">Gnome Symbolic Icon Theme</title>
  <defs
     id="defs7386" />
  <g
     style="display:inline"
     id="layer9"
     inkscape:groupmode="layer"
     transform="translate(-222,-381)"
     inkscape:label="status" />
  <g
     id="layer10"
     inkscape:groupmode="layer"
     transform="translate(-222,-381)"
     inkscape:label="devices" />
  <g
     id="layer11"
     inkscape:groupmode="layer"
     transform="translate(-222,-381)"
     inkscape:label="apps">
    <path
       inkscape:connector-curvature="0"
       d="m 237.59013,384.04991 v -1.32002 c 0,-0.7313 -0.58873,-1.32003 -1.32002,-1.32003 h -12.54022 c -0.73129,0 -1.32002,0.58873 -1.32002,1.32003 v 1.32002 c 0,-0.73129 0.58873,-1.32002 1.32002,-1.32002 h 12.54022 c 0.73129,0 1.32002,0.58873 1.32002,1.32002 z"
       style="opacity:0.3;fill:#bdbdbd;fill-opacity:0.34902;stroke-width:0.330006"
       id="path29-6" />
    <path
       id="path1162"
       style="opacity:0.3;fill:#bdbdbd;fill-opacity:0.34902;stroke-width:0.330006"
       d="m 222.40987,393.95008 v 1.32003 c 0,0.73129 0.58873,1.32002 1.32002,1.32002 h 12.54022 c 0.73129,0 1.32002,-0.58873 1.32002,-1.32002 v -1.32003 c 0,0.7313 -0.58873,1.32003 -1.32002,1.32003 h -12.54022 c -0.73129,0 -1.32002,-0.58873 -1.32002,-1.32003 z"
       inkscape:connector-curvature="0" />
    <path
       inkscape:connector-curvature="0"
       d="m 225.04991,381.40986 h -1.32002 c -0.73129,0 -1.32002,0.58873 -1.32002,1.32003 v 12.54022 c 0,0.73129 0.58873,1.32002 1.32002,1.32002 h 1.32002 c -0.73129,0 -1.32002,-0.58873 -1.32002,-1.32002 v -12.54022 c 0,-0.7313 0.58873,-1.32003 1.32002,-1.32003 z"
       style="opacity:0.3;fill:#bdbdbd;fill-opacity:0.34902;stroke-width:0.330006"
       id="path1164" />
    <path
       id="path1166"
       style="opacity:0.3;fill:#bdbdbd;fill-opacity:0.34902;stroke-width:0.330006"
       d="m 234.95009,381.40986 h 1.32002 c 0.73129,0 1.32002,0.58873 1.32002,1.32003 v 12.54022 c 0,0.73129 -0.58873,1.32002 -1.32002,1.32002 h -1.32002 c 0.73129,0 1.32002,-0.58873 1.32002,-1.32002 v -12.54022 c 0,-0.7313 -0.58873,-1.32003 -1.32002,-1.32003 z"
       inkscape:connector-curvature="0" />
    <text
       id="text866"
       y="393.00571"
       x="227.36768"
       style="font-style:normal;font-weight:normal;font-size:11.4449px;line-height:1.25;font-family:sans-serif;letter-spacing:0px;word-spacing:0px;opacity:0.35;fill:#bebebe;fill-opacity:1;stroke:none;stroke-width:0.286123"
       xml:space="preserve"><tspan
         style="font-style:normal;font-variant:normal;font-weight:normal;font-stretch:normal;font-family:'Star Labs';-inkscape-font-specification:'Star Labs';fill:#bebebe;fill-opacity:1;stroke-width:0.286123"
         y="393.00571"
         x="227.36768"
         id="tspan864"
         sodipodi:role="line">1</tspan></text>
  </g>
  <g
     id="layer12"
     inkscape:groupmode="layer"
     transform="translate(-222,-381)"
     inkscape:label="actions" />
  <g
     id="layer13"
     inkscape:groupmode="layer"
     transform="translate(-222,-381)"
     inkscape:label="places" />
  <g
     id="layer14"
     inkscape:groupmode="layer"
     transform="translate(-222,-381)"
     inkscape:label="mimetypes" />
  <g
     id="layer15"
     inkscape:groupmode="layer"
     transform="translate(-222,-381)"
     inkscape:label="emblems" />
</svg>
